{"title":"Will.i.am - Scream And Shout (Ft. Britney Spears) {M4A+MP4} (108","uid":7875770,"size":64216809,"categoryP":"video","categoryS":"music_videos","magnet":"?xt=urn:btih:7705ec6a20236f6c4fe54bf2d3c2bc49d5bbb200&amp;dn=Will.i.am+-+Scream+And+Shout+%28Ft.+Britney+Spears%29+%7BM4A%2BMP4%7D+%28108&amp;tr=udp%3A%2F%2Ftracker.openbittorrent.com%3A80&amp;tr=udp%3A%2F%2Fopen.demonii.com%3A1337&amp;tr=udp%3A%2F%2Ftracker.coppersurfer.tk%3A6969&amp;tr=udp%3A%2F%2Fexodus.desync.com%3A6969","seeders":4,"leechers":2,"uploader":"Vitamin_X","files":-1,"time":1354339430,"description":" &lt;a href=&quot;http://www.shotpix.com/images/06353367184912529995.jpg&quot; rel=&quot;nofollow&quot; target=&quot;_NEW&quot;&gt;http://www.shotpix.com/images/06353367184912529995.jpg&lt;/a&gt;\n\nWill.i.am - Scream And Shout (Ft. Britney Spears) [2012] {M4A+MP4} (1080p) x264 [VX] [P2PDL]\n\n                                1080p Full HD MP4 Video\n                                          +\n                                128 Kbps/VBR M4A Audio\n\nGeneral\nFormat                         : MPEG-4\nFormat profile                 : Base Media / Version 2\nCodec ID                       : mp42\nFile size                      : 56.1 MiB\nDuration                       : 4mn 51s\n\nVideo\nID                             : 1\nFormat                         : AVC\nFormat/Info                    : Advanced Video Codec\nWidth                          : 1 920 pixels\nHeight                         : 1 080 pixels\nDisplay aspect ratio           : 16:9\nFrame rate mode                : Variable\nFrame rate                     : 23.976 fps\nColor space                    : YUV\nChroma subsampling             : 4:2:0\nBit depth                      : 8 bits\nScan type                      : Progressive\nBits/(Pixel*Frame)             : 0.030\nStream size                    : 51.6 MiB (92%)\nWriting library                : x264 core 128\n\nAudio\nID                             : 2\nFormat                         : AAC\nFormat/Info                    : Advanced Audio Codec\nFormat profile                 : LC\nCodec ID                       : 40\nDuration                       : 4mn 51s\nBit rate mode                  : Variable\nBit rate                       : 125 Kbps\nMaximum bit rate               : 161 Kbps\nChannel(s)                     : 2 channels\nChannel positions              : Front: L R\nSampling rate                  : 48.0 KHz\nCompression mode               : Lossy\nStream size                    : 4.34 MiB (8%)\n\nSubtitles                      : No\n\nScreens:\n &lt;a href=&quot;\nhttp://www.shotpix.com/images/23201856898583161394.jpg&quot; rel=&quot;nofollow&quot; target=&quot;_NEW&quot;&gt;\nhttp://www.shotpix.com/images/23201856898583161394.jpg&lt;/a&gt; &lt;a href=&quot;\nhttp://www.shotpix.com/images/54392751253765090087.jpg&quot; rel=&quot;nofollow&quot; target=&quot;_NEW&quot;&gt;\nhttp://www.shotpix.com/images/54392751253765090087.jpg&lt;/a&gt;\n\nThumbs:\n &lt;a href=&quot;\nhttp://www.shotpix.com/images/71249100561321187649.jpg&quot; rel=&quot;nofollow&quot; target=&quot;_NEW&quot;&gt;\nhttp://www.shotpix.com/images/71249100561321187649.jpg&lt;/a&gt;\n\n-----------------------------------------------------------------------------------------\n\nNotes:\n\n* Recommended to use latest version VLC Media Player.\n* Install shark007 codecs in case of any kind of problem in playback (For non-VLC Media Player users).\n* Alternatively, install Core AVC codecs, the fastest decoder that there is coupled with Community Center Codec Pack and play on Windows Media Player Classic.\n\nGreets to: VYTO, a2zRG, suzitastik, Sheychi, Chew,staff members at ExtraTorrent, TPB,KAT, 1337x, PublicHD, Ahashare, TorrentMafia, BTScene, P2PDL, and all others\n\nEncoder Notes: Looking For Early Access To Anything You Can Provide DVDScr, R5, DVDRips, BluRay, Direct Audio, Early Music\nReleases, Seedboxes, Links, Dedicated Servers anything u can provide, Advance / Promo CDs/DVDs. If You Got anything to\noffer contact me at &quot;&lt;a class=&quot;__cf_email__&quot; href=&quot;/cdn-cgi/l/email-protection&quot; data-cfemail=&quot;dfafadb89fb7aaacb7f1bcb0b2&quot;&gt;[email&amp;#160;protected]&lt;/a&gt;&lt;script cf-hash='f9e31' type=&quot;text/javascript&quot;&gt;\n/* &lt;![CDATA[ */!function(){try{var t=&quot;currentScript&quot;in document?document.currentScript:function(){for(var t=document.getElementsByTagName(&quot;script&quot;),e=t.length;e--;)if(t[e].getAttribute(&quot;cf-hash&quot;))return t[e]}();if(t&amp;&amp;t.previousSibling){var e,r,n,i,c=t.previousSibling,a=c.getAttribute(&quot;data-cfemail&quot;);if(a){for(e=&quot;&quot;,r=parseInt(a.substr(0,2),16),n=2;a.length-n;n+=2)i=parseInt(a.substr(n,2),16)^r,e+=String.fromCharCode(i);e=document.createTextNode(e),c.parentNode.replaceChild(e,c)}}}catch(u){}}();/* ]]&gt; */&lt;/script&gt;&quot;","torrent":{"xt":"urn:btih:7705ec6a20236f6c4fe54bf2d3c2bc49d5bbb200","amp;dn":"Will.i.am+-+Scream+And+Shout+%28Ft.+Britney+Spears%29+%7BM4A%2BMP4%7D+%28108","amp;tr":["udp%3A%2F%2Ftracker.openbittorrent.com%3A80","udp%3A%2F%2Fopen.demonii.com%3A1337","udp%3A%2F%2Ftracker.coppersurfer.tk%3A6969","udp%3A%2F%2Fexodus.desync.com%3A6969"],"infoHash":"7705ec6a20236f6c4fe54bf2d3c2bc49d5bbb200","infoHashBuffer":{"type":"Buffer","data":[119,5,236,106,32,35,111,108,79,229,75,242,211,194,188,73,213,187,178,0]},"announce":[],"urlList":[]}}